<svg xmlns="http://www.w3.org/2000/svg" viewBox="0 0 100 100"><path d="M69.68 52.71 60 62.08l4.44 2.61a2 2 0 0 1 .8 2.57L52.23 95C76.29 94.14 89 80.25 89 80.25l-7.88-23.07-11-5.07a1.89 1.89 0 0 1-.44.6ZM31.13 49.36l5.69-1.72a19.12 19.12 0 0 1-5.43-9.72l-1.09-.28-5.8 2.49 6.12 9.47a2 2 0 0 1 .51-.24ZM47.77 95l-13-27.7a2 2 0 0 1 .8-2.57L40 62.08l-9.68-9.37a1.89 1.89 0 0 1-.41-.6l-11 5.07L11 80.25S23.71 94.14 47.77 95ZM68.61 37.92a19.12 19.12 0 0 1-5.43 9.72l5.69 1.72a2 2 0 0 1 .51.24l6.13-9.47-5.81-2.49Z"/><path d="m56.71 62.48 11.58-11.21-6.93-2.09a18.8 18.8 0 0 1-22.72 0l-6.93 2.09 11.58 11.21-6.72 3.93L50 95l13.43-28.59Z"/><path d="M66.42 38.42A82.4 82.4 0 0 1 50 40a82.4 82.4 0 0 1-16.42-1.6 17 17 0 0 0 32.84 0ZM81.69 26.85c0-4-6-7.5-14.92-9.47l1.81 6.08a2 2 0 0 1-.33 1.79c-.2.26-5 6.34-18.25 6.34s-18-6.08-18.25-6.34a2 2 0 0 1-.33-1.79l1.81-6.08c-9 2-14.92 5.48-14.92 9.47C18.31 33 32.5 38 50 38s31.69-5 31.69-11.15Z"/><path d="M50 29.59c12.41 0 16.67-5.59 16.67-5.59L62 8.31A4.63 4.63 0 0 0 57.52 5a4.57 4.57 0 0 0-2.83 1L50 9.63 45.31 6a4.57 4.57 0 0 0-2.83-1A4.63 4.63 0 0 0 38 8.31L33.33 24s4.26 5.59 16.67 5.59Z"/></svg>
